<svg width="25" height="25" viewBox="0 0 25 25" fill="none" xmlns="http://www.w3.org/2000/svg">
<path d="M24.2127 8.26354C24.2127 8.26354 24.2127 8.26354 24.2127 8.20104C23.3319 5.79632 21.7338 3.72014 19.6346 2.25337C17.5353 0.78659 15.0361 0 12.4752 0C9.91426 0 7.41511 0.78659 5.31583 2.25337C3.21655 3.72014 1.61845 5.79632 0.737696 8.20104C0.737696 8.20104 0.737696 8.20104 0.737696 8.26354C-0.245899 10.9772 -0.245899 13.9499 0.737696 16.6635C0.737696 16.6635 0.737696 16.6635 0.737696 16.726C1.61845 19.1308 3.21655 21.2069 5.31583 22.6737C7.41511 24.1405 9.91426 24.9271 12.4752 24.9271C15.0361 24.9271 17.5353 24.1405 19.6346 22.6737C21.7338 21.2069 23.3319 19.1308 24.2127 16.726C24.2127 16.726 24.2127 16.726 24.2127 16.6635C25.1963 13.9499 25.1963 10.9772 24.2127 8.26354ZM2.7752 14.9635C2.34173 13.3251 2.34173 11.602 2.7752 9.96354H5.1002C4.90024 11.6242 4.90024 13.3029 5.1002 14.9635H2.7752ZM3.8002 17.4635H5.5502C5.84359 18.5783 6.26296 19.6561 6.8002 20.676C5.57432 19.841 4.54957 18.7436 3.8002 17.4635ZM5.5502 7.46354H3.8002C4.53878 6.18739 5.55044 5.09037 6.7627 4.25104C6.23839 5.27259 5.83162 6.35031 5.5502 7.46354ZM11.2002 22.0885C9.6649 20.9619 8.58663 19.3201 8.1627 17.4635H11.2002V22.0885ZM11.2002 14.9635H7.6252C7.39193 13.305 7.39193 11.622 7.6252 9.96354H11.2002V14.9635ZM11.2002 7.46354H8.1627C8.58663 5.607 9.6649 3.96518 11.2002 2.83854V7.46354ZM21.1002 7.46354H19.3502C19.0568 6.34873 18.6374 5.27096 18.1002 4.25104C19.3261 5.08612 20.3508 6.18346 21.1002 7.46354ZM13.7002 2.83854C15.2355 3.96518 16.3138 5.607 16.7377 7.46354H13.7002V2.83854ZM13.7002 22.0885V17.4635H16.7377C16.3138 19.3201 15.2355 20.9619 13.7002 22.0885ZM17.2752 14.9635H13.7002V9.96354H17.2752C17.5085 11.622 17.5085 13.305 17.2752 14.9635ZM18.1377 20.676C18.6749 19.6561 19.0943 18.5783 19.3877 17.4635H21.1377C20.3883 18.7436 19.3636 19.841 18.1377 20.676ZM22.1252 14.9635H19.8002C19.9019 14.1341 19.952 13.2992 19.9502 12.4635C19.9516 11.6279 19.9015 10.793 19.8002 9.96354H22.1252C22.5587 11.602 22.5587 13.3251 22.1252 14.9635Z" fill="#F1A900"/>
</svg>
